<?xml version="1.0" encoding="UTF-8"?>
<svg version="1.1" xmlns="http://www.w3.org/2000/svg" width="16" height="16">
<path d="M0 0 C1.90625 0.484375 1.90625 0.484375 4.40625 2.609375 C6.17364304 5.99687833 6.5339957 7.7179008 5.90625 11.484375 C4.40625 14.359375 4.40625 14.359375 1.90625 16.484375 C-0.9167096 17.20168441 -3.2707904 17.20168441 -6.09375 16.484375 C-9.09368115 13.93443352 -9.94855459 12.35554744 -10.59375 8.484375 C-9.51746246 2.02664975 -6.32194683 -0.42460837 0 0 Z " fill="#F8CB30" transform="translate(10.09375,-0.484375)"/>
<path d="M0 0 C2.875 0.6875 2.875 0.6875 3.875 1.6875 C4.32878151 6.90598739 4.32878151 6.90598739 2.75 9.625 C0.875 10.6875 0.875 10.6875 -2.25 10.5 C-3.19875 10.231875 -4.1475 9.96375 -5.125 9.6875 C-6.51931504 6.89886993 -6.38160094 4.76671132 -6.125 1.6875 C-3.125 -0.3125 -3.125 -0.3125 0 0 Z " fill="#F9B236" transform="translate(9.125,2.3125)"/>
<path d="M0 0 C2.5625 2.25 2.5625 2.25 4 5 C3.75 7.3125 3.75 7.3125 3 9 C2.443125 7.7934375 2.443125 7.7934375 1.875 6.5625 C0.1908205 3.74200654 0.1908205 3.74200654 -3 3 C-5.95535017 2.71613352 -5.95535017 2.71613352 -7.8125 4.25 C-9.18447403 6.10172842 -9.18447403 6.10172842 -10 9 C-10.66 9 -11.32 9 -12 9 C-11.67815583 6.10340247 -11.38591512 3.68102669 -9.9375 1.125 C-6.75275013 -0.7242096 -3.51239214 -0.7617236 0 0 Z " fill="#F8EA30" transform="translate(12,0)"/>
<path d="M0 0 C1.65 0 3.3 0 5 0 C4.67 2.31 4.34 4.62 4 7 C2.68 7.33 1.36 7.66 0 8 C-0.79953138 4.71303767 -1.09658936 3.28976808 0 0 Z " fill="#F8D932" transform="translate(6,4)"/>
</svg>
